<svg width="174" height="42" viewBox="0 0 174 42" fill="none" xmlns="http://www.w3.org/2000/svg">
<path d="M91.8027 17.6143C91.8027 20.4854 90.8799 22.9756 89.0342 25.085C87.4033 26.9697 85.1133 27.9609 82.1641 28.0586C81.5977 28.0781 80.04 28.0879 77.4912 28.0879C77.0127 28.0879 76.29 28.0732 75.3232 28.0439C74.3662 28.0146 73.6484 28 73.1699 28C72.8867 28 72.7451 27.8877 72.7451 27.6631C72.7451 26.5889 72.7842 24.9775 72.8623 22.8291C72.9502 20.6709 72.9941 19.0547 72.9941 17.9805C72.9941 16.8574 72.9502 15.1777 72.8623 12.9414C72.7842 10.6953 72.7451 9.01562 72.7451 7.90234C72.7451 7.69727 72.8867 7.5752 73.1699 7.53613C73.8633 7.45801 75.001 7.41895 76.583 7.41895C79.5908 7.41895 81.5391 7.46289 82.4277 7.55078C84.7422 7.78516 86.5537 8.37109 87.8623 9.30859C89.0928 10.1875 90.0645 11.418 90.7773 13C91.4609 14.4941 91.8027 16.0322 91.8027 17.6143ZM86.1924 17.6143C86.1924 15.9639 85.6992 14.6162 84.7129 13.5713C83.7168 12.4873 82.3984 11.9453 80.7578 11.9453C79.2539 11.9453 78.502 12.1455 78.502 12.5459C78.502 13.1221 78.4922 13.9912 78.4727 15.1533C78.4531 16.3057 78.4434 17.1699 78.4434 17.7461C78.4434 18.3125 78.4531 19.167 78.4727 20.3096C78.4922 21.4424 78.502 22.2969 78.502 22.873C78.502 23.293 79.2832 23.5029 80.8457 23.5029C82.5352 23.5029 83.8633 22.9414 84.8301 21.8184C85.7383 20.7539 86.1924 19.3525 86.1924 17.6143ZM100.521 10.3926C100.521 12.0918 99.5645 12.9414 97.6504 12.9414C96.8301 12.9414 96.1514 12.7266 95.6143 12.2969C95.0283 11.8281 94.7354 11.1934 94.7354 10.3926C94.7354 9.63086 95.0381 9.00586 95.6436 8.51758C96.2002 8.06836 96.8691 7.84375 97.6504 7.84375C98.4121 7.84375 99.0713 8.07324 99.6279 8.53223C100.224 9.02051 100.521 9.64063 100.521 10.3926ZM100.141 21.2764C100.141 21.9893 100.155 23.0537 100.185 24.4697C100.214 25.876 100.229 26.9307 100.229 27.6338C100.229 27.8389 100.106 27.9609 99.8623 28C99.5303 28.0586 98.7832 28.0879 97.6211 28.0879C96.4492 28.0879 95.6973 28.0586 95.3652 28C95.1504 27.9609 95.0186 27.8975 94.9697 27.8096C94.9502 27.7705 94.9404 27.624 94.9404 27.3701C94.9404 26.6963 94.9551 25.6855 94.9844 24.3379C95.0137 22.9805 95.0283 21.96 95.0283 21.2764C95.0283 18.5029 94.9209 16.2959 94.7061 14.6553C94.6865 14.499 94.6768 14.3965 94.6768 14.3477C94.6768 14.1523 94.8086 14.0547 95.0723 14.0547C95.3457 14.0547 95.7607 14.084 96.3174 14.1426C96.8838 14.2012 97.3086 14.2305 97.5918 14.2305C97.875 14.2305 98.2998 14.2061 98.8662 14.1572C99.4326 14.1084 99.8574 14.084 100.141 14.084C100.375 14.084 100.492 14.1816 100.492 14.377C100.492 14.416 100.482 14.5088 100.463 14.6553C100.248 16.5596 100.141 18.7666 100.141 21.2764ZM112.302 16.1494C112.302 16.2471 112.229 16.3789 112.082 16.5449C111.809 16.4766 111.535 16.4424 111.262 16.4424C110.686 16.4424 110.202 16.5693 109.812 16.8232C109.343 17.1162 109.108 17.5312 109.108 18.0684C109.108 18.4102 109.357 18.8447 109.855 19.3721C110.607 20.1631 111.071 20.6953 111.247 20.9688C111.745 21.7109 111.994 22.5068 111.994 23.3564C111.994 23.8545 111.896 24.3818 111.701 24.9385C111.477 25.5537 111.193 26.0029 110.852 26.2861C110.129 26.9111 109.284 27.4385 108.317 27.8682C107.272 28.3174 106.311 28.542 105.432 28.542C105.236 28.542 104.797 28.0146 104.113 26.96C103.439 25.8955 103.103 25.2461 103.103 25.0117C103.103 24.9238 103.156 24.8701 103.264 24.8506C103.947 24.7236 104.636 24.5967 105.329 24.4697C106.188 24.1963 106.618 23.7471 106.618 23.1221C106.618 22.6924 106.369 22.1943 105.871 21.6279C104.982 20.6416 104.519 20.1191 104.479 20.0605C103.981 19.3574 103.732 18.6152 103.732 17.834C103.732 16.3691 104.475 15.124 105.959 14.0986C107.287 13.1904 108.708 12.7363 110.222 12.7363C110.378 12.7363 110.764 13.2637 111.379 14.3184C111.994 15.3633 112.302 15.9736 112.302 16.1494ZM124.873 18.3613C124.863 18.3613 124.565 18.2832 123.979 18.127C123.403 17.9707 122.935 17.8926 122.573 17.8926C121.704 17.8926 121.011 18.1562 120.493 18.6836C119.976 19.2012 119.717 19.8945 119.717 20.7637C119.717 21.6621 120 22.3701 120.566 22.8877C121.133 23.3955 121.87 23.6494 122.778 23.6494C123.208 23.6494 123.691 23.542 124.229 23.3271C124.766 23.1025 125.02 22.9902 124.99 22.9902C125.156 22.9902 125.371 23.6104 125.635 24.8506C125.859 25.9834 125.972 26.7354 125.972 27.1064C125.972 27.4775 125.366 27.7949 124.155 28.0586C123.218 28.2637 122.461 28.3662 121.885 28.3662C119.736 28.3662 117.964 27.6436 116.567 26.1982C115.171 24.7529 114.473 22.9512 114.473 20.793C114.473 18.6543 115.171 16.8574 116.567 15.4023C117.974 13.9375 119.746 13.2051 121.885 13.2051C123.34 13.2051 124.619 13.5176 125.723 14.1426C125.977 14.2793 126.104 14.4111 126.104 14.5381C126.104 14.665 125.957 15.2412 125.664 16.2666C125.391 17.2529 125.21 17.8486 125.122 18.0537C125.044 18.2588 124.961 18.3613 124.873 18.3613ZM142.498 20.793C142.498 23.0195 141.814 24.8262 140.447 26.2129C139.09 27.5996 137.303 28.293 135.086 28.293C132.938 28.293 131.17 27.6094 129.783 26.2422C128.396 24.875 127.703 23.1172 127.703 20.9688C127.703 18.7031 128.367 16.8672 129.695 15.4609C131.023 14.0449 132.82 13.3369 135.086 13.3369C137.293 13.3369 139.08 14.0303 140.447 15.417C141.814 16.7939 142.498 18.5859 142.498 20.793ZM137.693 20.793C137.693 20.0215 137.454 19.3428 136.976 18.7568C136.497 18.1611 135.877 17.8633 135.115 17.8633C134.344 17.8633 133.709 18.166 133.211 18.7715C132.742 19.3379 132.508 20.0117 132.508 20.793C132.508 21.584 132.742 22.2627 133.211 22.8291C133.709 23.4346 134.344 23.7373 135.115 23.7373C135.877 23.7373 136.507 23.4346 137.005 22.8291C137.464 22.2627 137.693 21.584 137.693 20.793ZM154.747 18.874C154.747 19.2549 154.537 19.4453 154.117 19.4453C153.932 19.4453 153.658 19.4355 153.297 19.416C152.945 19.3867 152.682 19.3721 152.506 19.3721C151.695 19.3721 151.144 19.499 150.851 19.7529C150.558 20.0068 150.411 20.5195 150.411 21.291C150.411 21.7109 150.416 22.3506 150.426 23.21C150.445 24.0596 150.455 24.6943 150.455 25.1143C150.455 25.3975 150.475 25.8223 150.514 26.3887C150.553 26.9453 150.572 27.3604 150.572 27.6338C150.572 27.8682 150.411 28 150.089 28.0293C149.62 28.0684 148.902 28.0879 147.936 28.0879C147.008 28.0879 146.266 28.0586 145.709 28C145.387 27.9609 145.226 27.7998 145.226 27.5166C145.226 26.7354 145.23 25.5684 145.24 24.0156C145.25 22.4531 145.255 21.2812 145.255 20.5C145.255 18.2051 145.045 16.3154 144.625 14.8311C144.605 14.7432 144.596 14.6699 144.596 14.6113C144.596 14.4648 144.669 14.3672 144.815 14.3184C145.353 14.2598 146.139 14.1523 147.174 13.9961C148.717 13.6934 149.513 13.542 149.562 13.542C149.737 13.542 149.85 13.8496 149.898 14.4648C149.947 15.0801 150.035 15.3877 150.162 15.3877C150.025 15.3877 150.426 15.1338 151.363 14.626C152.301 14.1084 153.204 13.8496 154.073 13.8496C154.62 13.8496 154.894 13.9668 154.894 14.2012C154.894 14.4844 154.864 14.8848 154.806 15.4023C154.747 15.959 154.713 16.3594 154.703 16.6035C154.703 16.8867 154.708 17.2627 154.718 17.7314C154.737 18.3076 154.747 18.6885 154.747 18.874ZM172.738 7.21387C172.738 6.99902 172.699 7.32129 172.621 8.18066C172.514 9.26465 172.431 10.6514 172.372 12.3408C172.294 14.2549 172.255 16.4326 172.255 18.874C172.255 22.9072 172.367 25.7783 172.592 27.4873C172.611 27.6729 172.621 27.79 172.621 27.8389C172.621 27.9463 172.548 28.0098 172.401 28.0293C172.05 28.0781 170.756 28.1025 168.52 28.1025C167.992 28.1025 167.689 28 167.611 27.7949C167.592 27.4238 167.572 27.0527 167.553 26.6816C167.543 26.6035 167.504 26.5254 167.436 26.4473C167.377 26.4766 167.304 26.5352 167.216 26.623C166.161 27.6582 164.843 28.1758 163.261 28.1758C161.2 28.1758 159.55 27.4531 158.31 26.0078C157.128 24.6309 156.537 22.8926 156.537 20.793C156.537 18.6641 157.118 16.9111 158.28 15.5342C159.511 14.0693 161.171 13.3369 163.261 13.3369C164.735 13.3369 165.883 13.8057 166.703 14.7432C166.84 14.8994 166.938 14.9775 166.996 14.9775C167.084 14.9775 167.128 14.8506 167.128 14.5967C167.128 13.8447 167.108 12.7217 167.069 11.2275C167.03 9.7334 167.011 8.61523 167.011 7.87305C167.011 7.58984 167.089 7.42871 167.245 7.38965C167.87 7.36035 168.729 7.30176 169.823 7.21387C171.776 6.96973 172.641 6.84766 172.416 6.84766C172.631 6.84766 172.738 6.96973 172.738 7.21387ZM167.216 20.6758C167.216 19.9043 166.947 19.2305 166.41 18.6543C165.873 18.0684 165.224 17.7754 164.462 17.7754C163.661 17.7754 163.021 18.0684 162.543 18.6543C162.074 19.2305 161.84 19.9238 161.84 20.7344C161.84 21.5254 162.079 22.1943 162.558 22.7412C163.046 23.3271 163.681 23.6201 164.462 23.6201C165.243 23.6201 165.897 23.3271 166.425 22.7412C166.952 22.1553 167.216 21.4668 167.216 20.6758Z" fill="#8B8CAD"/>
<path d="M45.9138 5.44925C45.9027 5.42875 45.8842 5.41269 45.8618 5.40394C43.2684 4.27168 40.5316 3.46429 37.7199 3.00198C37.6943 2.99746 37.6679 3.00072 37.6445 3.0113C37.621 3.02187 37.6016 3.03923 37.5891 3.06089C37.2164 3.70451 36.8781 4.36562 36.5755 5.0417C33.5446 4.6039 30.4617 4.6039 27.4308 5.0417C27.1261 4.36391 26.7824 3.70263 26.4012 3.06089C26.3881 3.0397 26.3686 3.02274 26.3453 3.01224C26.322 3.00173 26.2958 2.99816 26.2703 3.00198C23.4583 3.46332 20.7213 4.27077 18.1282 5.404C18.106 5.41296 18.0873 5.42825 18.0746 5.44776C12.889 12.8168 11.4684 20.0046 12.1653 27.1034C12.1673 27.1208 12.1729 27.1376 12.1818 27.1529C12.1908 27.1682 12.2028 27.1816 12.2173 27.1924C15.2369 29.3198 18.6143 30.9438 22.2055 31.9948C22.2308 32.002 22.2578 32.0017 22.2829 31.9939C22.3079 31.9861 22.3299 31.9711 22.3458 31.9511C23.1171 30.9524 23.8005 29.8949 24.3891 28.7894C24.3972 28.7742 24.4019 28.7576 24.4027 28.7406C24.4035 28.7236 24.4006 28.7066 24.394 28.6908C24.3875 28.675 24.3775 28.6607 24.3647 28.6488C24.3519 28.6369 24.3366 28.6277 24.3198 28.6219C23.2421 28.2295 22.1988 27.7565 21.1995 27.2073C21.1814 27.1971 21.1662 27.1829 21.1552 27.1658C21.1442 27.1487 21.1378 27.1293 21.1365 27.1093C21.1353 27.0893 21.1392 27.0693 21.148 27.0511C21.1568 27.0329 21.1702 27.017 21.187 27.0049C21.3966 26.8555 21.6064 26.7 21.8066 26.5429C21.8244 26.529 21.8459 26.5201 21.8688 26.5171C21.8916 26.5142 21.9148 26.5174 21.9359 26.5264C28.4821 29.3692 35.5693 29.3692 42.038 26.5264C42.0591 26.5168 42.0826 26.5132 42.1057 26.5158C42.1289 26.5185 42.1508 26.5274 42.1689 26.5414C42.3691 26.6985 42.5789 26.8555 42.7901 27.0049C42.807 27.0169 42.8204 27.0327 42.8294 27.0508C42.8383 27.0689 42.8424 27.0889 42.8413 27.1089C42.8402 27.1289 42.834 27.1483 42.8231 27.1655C42.8123 27.1827 42.7971 27.197 42.7791 27.2073C41.7821 27.7611 40.7378 28.2338 39.6573 28.6204C39.6405 28.6265 39.6253 28.6358 39.6126 28.6479C39.5999 28.66 39.59 28.6745 39.5835 28.6904C39.5771 28.7064 39.5743 28.7234 39.5753 28.7405C39.5763 28.7575 39.5811 28.7742 39.5893 28.7894C40.1877 29.8888 40.8702 30.9449 41.631 31.9493C41.6465 31.9699 41.6684 31.9854 41.6935 31.9935C41.7187 32.0016 41.746 32.002 41.7714 31.9946C45.369 30.9471 48.7523 29.3231 51.7756 27.1924C51.7904 27.1822 51.8026 27.1691 51.8116 27.154C51.8206 27.1389 51.8261 27.1221 51.8277 27.1049C52.662 18.8979 50.4309 11.769 45.9138 5.44925ZM25.3668 22.7809C23.3959 22.7809 21.7719 21.0599 21.7719 18.9463C21.7719 16.8326 23.3644 15.1115 25.3668 15.1115C27.3848 15.1115 28.993 16.8476 28.9615 18.9461C28.9615 21.0599 27.369 22.7809 25.3668 22.7809ZM38.658 22.7809C36.6872 22.7809 35.0632 21.0599 35.0632 18.9463C35.0632 16.8326 36.6557 15.1115 38.658 15.1115C40.6761 15.1115 42.2843 16.8476 42.2528 18.9461C42.2528 21.0599 40.6761 22.7809 38.658 22.7809Z" fill="#8B8CAD"/>
</svg>
