<svg width="38" height="26" viewBox="0 0 38 26" fill="none" xmlns="http://www.w3.org/2000/svg">
<path d="M0.0232037 0.539999H12.5632V2.85H2.5432V9.39H11.8432V11.64H2.5432V18.69H12.8632V21H0.0232037V0.539999ZM31.2731 10.92C31.2731 8.22 30.6431 6.17 29.3831 4.77C28.1431 3.37 26.4731 2.67 24.3731 2.67C23.3131 2.67 22.3431 2.84 21.4631 3.18C20.6031 3.5 19.8531 3.99 19.2131 4.65C18.5931 5.31 18.1031 6.14 17.7431 7.14C17.4031 8.12 17.2331 9.28 17.2331 10.62C17.2331 13.32 17.8531 15.39 19.0931 16.83C20.3531 18.27 22.0331 18.99 24.1331 18.99C25.1731 18.99 26.1331 18.83 27.0131 18.51C27.8931 18.17 28.6431 17.66 29.2631 16.98C29.9031 16.3 30.3931 15.46 30.7331 14.46C31.0931 13.46 31.2731 12.28 31.2731 10.92ZM25.5731 21.33C25.3131 21.37 25.1031 21.39 24.9431 21.39C24.7831 21.39 24.5831 21.39 24.3431 21.39C23.2831 21.39 22.1631 21.23 20.9831 20.91C19.8231 20.59 18.7531 20.03 17.7731 19.23C16.7931 18.43 15.9831 17.35 15.3431 15.99C14.7031 14.61 14.3831 12.87 14.3831 10.77C14.3831 8.83 14.6831 7.19 15.2831 5.85C15.8831 4.51 16.6631 3.43 17.6231 2.61C18.5831 1.79 19.6531 1.2 20.8331 0.839998C22.0131 0.459999 23.1831 0.269999 24.3431 0.269999C25.4831 0.269999 26.6331 0.429999 27.7931 0.75C28.9531 1.05 30.0031 1.6 30.9431 2.4C31.8831 3.2 32.6431 4.28 33.2231 5.64C33.8231 6.98 34.1231 8.7 34.1231 10.8C34.1231 12.16 33.9631 13.37 33.6431 14.43C33.3231 15.47 32.9031 16.39 32.3831 17.19C31.8631 17.97 31.2631 18.63 30.5831 19.17C29.9031 19.69 29.2031 20.11 28.4831 20.43C28.8031 20.61 29.1931 20.85 29.6531 21.15C30.1131 21.45 30.5931 21.74 31.0931 22.02C31.5931 22.32 32.0831 22.57 32.5631 22.77C33.0431 22.97 33.4731 23.07 33.8531 23.07C34.2131 23.07 34.5831 23.01 34.9631 22.89C35.3631 22.77 35.7331 22.6 36.0731 22.38L37.1831 24.33C36.7231 24.61 36.1931 24.87 35.5931 25.11C35.0131 25.35 34.3931 25.47 33.7331 25.47C33.2731 25.47 32.7431 25.35 32.1431 25.11C31.5431 24.89 30.8931 24.59 30.1931 24.21C29.4931 23.83 28.7531 23.39 27.9731 22.89C27.1931 22.39 26.3931 21.87 25.5731 21.33Z" fill="#8B8CAD"/>
</svg>
