<svg width="88" height="30" viewBox="0 0 88 30" fill="none" xmlns="http://www.w3.org/2000/svg">
<path d="M10.4103 23H0.156349V22.0771H2.89072V3.41504H0.156349V2.49219H10.4103V3.41504H7.67588V22.0771H9.4874C9.96592 22.1227 10.2735 22.4303 10.4103 23ZM16.1552 22.1113C16.2919 22.1113 16.4172 22.1227 16.5312 22.1455C16.8274 22.1911 16.9755 22.4759 16.9755 23H8.97744V22.1113C9.15974 22.1113 9.33063 22.0999 9.49014 22.0771C10.47 21.9632 10.9599 21.3822 10.9599 20.334V9.19141H8.97744V8.30273H15.0614L15.2323 10.9688C15.4374 10.5586 15.7108 10.1598 16.0526 9.77246C17.2147 8.45085 18.6275 7.79004 20.2909 7.79004C20.8834 7.79004 21.453 7.88118 21.9999 8.06348C24.0051 8.76986 25.0077 10.5358 25.0077 13.3613V22.1113H26.1356C26.2724 22.1113 26.4091 22.1227 26.5458 22.1455C26.842 22.1911 26.9901 22.4759 26.9901 23H19.0946V22.1113C19.4136 22.1113 19.6871 22.0771 19.9149 22.0088C20.4162 21.8493 20.6669 21.291 20.6669 20.334V12.7803C20.6669 12.4613 20.6441 12.1536 20.5985 11.8574C20.3707 10.3307 19.6073 9.56738 18.3085 9.56738C17.9667 9.56738 17.6363 9.64714 17.3173 9.80664C16.1552 10.3763 15.4944 11.5612 15.3349 13.3613L15.3007 22.1113H16.1552ZM34.9226 22.1113C35.0593 22.1113 35.1846 22.1227 35.2985 22.1455C35.5948 22.1911 35.7429 22.4759 35.7429 23H25.5573V22.1113C27.2435 22.1113 28.1094 21.5189 28.155 20.334V9.22559H25.3864V8.30273H28.155V7.8584C28.155 6.12663 28.5196 4.66829 29.2487 3.4834C30.4336 1.56934 32.3591 0.612305 35.0251 0.612305C36.2556 0.612305 37.3037 0.828776 38.1696 1.26172C39.3545 1.85417 39.947 2.65169 39.947 3.6543C39.947 3.85938 39.9128 4.05306 39.8444 4.23535C39.5482 4.96452 38.933 5.3291 37.9987 5.3291C37.4746 5.30632 37.0189 5.07845 36.6315 4.64551C36.4948 4.46322 36.1986 3.84798 35.7429 2.7998C35.3783 1.93392 34.9112 1.50098 34.3415 1.50098C33.9086 1.50098 33.5554 1.66048 33.2819 1.97949C32.7578 2.6403 32.4958 4.69108 32.4958 8.13184V8.30273H36.3581V9.22559H32.4958V22.1113H34.9226ZM39.437 15.583C39.437 17.7249 39.5737 19.2858 39.8472 20.2656C40.2573 21.724 41.1688 22.4531 42.5815 22.4531C43.3791 22.4531 44.0285 22.2139 44.5298 21.7354C45.3957 20.8695 45.8286 18.7731 45.8286 15.4463C45.8286 13.3727 45.6919 11.8574 45.4185 10.9004C45.0083 9.41927 44.0741 8.67871 42.6157 8.67871C41.7498 8.67871 41.0776 8.94076 40.5991 9.46484C39.8244 10.3535 39.437 12.3929 39.437 15.583ZM42.7866 7.79004C44.7463 7.79004 46.4211 8.32552 47.811 9.39648C49.6112 10.832 50.5112 12.8258 50.5112 15.3779C50.5112 17.292 49.9416 18.9782 48.8022 20.4365C47.2756 22.3734 45.1678 23.3418 42.479 23.3418C40.5194 23.3418 38.8332 22.7493 37.4204 21.5645C35.6431 20.0605 34.7544 18.0212 34.7544 15.4463C34.7544 13.6234 35.2785 12.0283 36.3267 10.6611C37.8306 8.74707 39.9839 7.79004 42.7866 7.79004ZM55.4358 22.3848C56.9625 22.3848 57.8398 21.8379 58.0677 20.7441C58.0905 20.5846 58.1019 20.4365 58.1019 20.2998C58.1019 19.1377 57.3727 18.1693 55.9144 17.3945C55.5953 17.2122 55.0826 16.973 54.3763 16.6768C52.6673 15.9248 51.5394 15.2298 50.9925 14.5918C50.4 13.9082 50.1038 13.0993 50.1038 12.165C50.1038 10.2282 51.1634 8.91797 53.2825 8.23438C54.1712 7.93815 55.1624 7.79004 56.2561 7.79004C58.0335 7.79004 59.4235 8.10905 60.4261 8.74707C60.4261 8.06348 60.6311 7.6875 61.0413 7.61914C61.1325 7.59635 61.2236 7.58496 61.3147 7.58496V11.8574H60.221C60.1298 9.78385 59.0019 8.73568 56.8372 8.71289C55.3789 8.71289 54.4788 9.19141 54.137 10.1484C54.0686 10.3763 54.0345 10.6042 54.0345 10.832C54.0345 11.8118 54.7181 12.6436 56.0853 13.3271C56.3587 13.4867 56.8144 13.7031 57.4524 13.9766C59.2298 14.7741 60.4147 15.5033 61.0071 16.1641C61.6907 16.9388 62.0325 17.8617 62.0325 18.9326C62.0325 20.915 61.0071 22.248 58.9563 22.9316C58.1132 23.2051 57.1676 23.3418 56.1194 23.3418C54.1142 23.3418 52.428 22.9886 51.0608 22.2822C51.0608 22.8747 50.9127 23.2165 50.6165 23.3076C50.4798 23.3304 50.3203 23.3418 50.138 23.3418V18.1465H51.3001C51.3457 20.9492 52.7242 22.362 55.4358 22.3848ZM64.7013 28.4688C64.9291 28.4688 65.1684 28.4232 65.419 28.332C66.4216 27.9674 67.4698 26.4294 68.5636 23.7178L61.8985 9.15723H60.463V8.30273H68.4952V9.15723H66.4103L70.546 18.6934L74.2716 9.15723H71.7081V8.30273H77.006C77.006 8.41667 76.9946 8.5306 76.9718 8.64453C76.9262 8.98633 76.6528 9.15723 76.1515 9.15723C75.7869 9.2028 75.4109 9.5332 75.0235 10.1484L69.8966 23.4443C69.4636 24.5837 69.0079 25.5521 68.5294 26.3496C67.2761 28.5599 65.6925 29.665 63.7784 29.665C62.9353 29.665 62.1948 29.4941 61.5567 29.1523C60.6453 28.6738 60.1896 28.0586 60.1896 27.3066C60.1896 27.1471 60.2123 26.9762 60.2579 26.7939C60.4858 26.0876 61.0099 25.7344 61.8302 25.7344C62.2175 25.7344 62.5593 25.8369 62.8556 26.042C63.1062 26.2471 63.391 26.7484 63.7101 27.5459C63.9607 28.1611 64.2911 28.4688 64.7013 28.4688ZM80.9052 22.3848C82.4319 22.3848 83.3091 21.8379 83.537 20.7441C83.5598 20.5846 83.5712 20.4365 83.5712 20.2998C83.5712 19.1377 82.842 18.1693 81.3837 17.3945C81.0647 17.2122 80.552 16.973 79.8456 16.6768C78.1366 15.9248 77.0087 15.2298 76.4618 14.5918C75.8694 13.9082 75.5731 13.0993 75.5731 12.165C75.5731 10.2282 76.6327 8.91797 78.7519 8.23438C79.6405 7.93815 80.6317 7.79004 81.7255 7.79004C83.5028 7.79004 84.8928 8.10905 85.8954 8.74707C85.8954 8.06348 86.1005 7.6875 86.5106 7.61914C86.6018 7.59635 86.6929 7.58496 86.7841 7.58496V11.8574H85.6903C85.5992 9.78385 84.4713 8.73568 82.3065 8.71289C80.8482 8.71289 79.9481 9.19141 79.6063 10.1484C79.538 10.3763 79.5038 10.6042 79.5038 10.832C79.5038 11.8118 80.1874 12.6436 81.5546 13.3271C81.828 13.4867 82.2838 13.7031 82.9218 13.9766C84.6991 14.7741 85.884 15.5033 86.4765 16.1641C87.1601 16.9388 87.5019 17.8617 87.5019 18.9326C87.5019 20.915 86.4765 22.248 84.4257 22.9316C83.5826 23.2051 82.6369 23.3418 81.5888 23.3418C79.5836 23.3418 77.8974 22.9886 76.5302 22.2822C76.5302 22.8747 76.3821 23.2165 76.0858 23.3076C75.9491 23.3304 75.7896 23.3418 75.6073 23.3418V18.1465H76.7694C76.815 20.9492 78.1936 22.362 80.9052 22.3848Z" fill="#8B8CAD"/>
</svg>
