<svg width="94" height="20" viewBox="0 0 94 20" fill="none" xmlns="http://www.w3.org/2000/svg">
<path d="M6.83227 9.25C7.67227 9.25 8.31227 9.06 8.75227 8.68C9.21227 8.28 9.44227 7.68 9.44227 6.88C9.44227 6.12 9.20227 5.54 8.72227 5.14C8.26227 4.72 7.58227 4.51 6.68227 4.51C6.36227 4.51 6.09227 4.52 5.87227 4.54C5.67227 4.54 5.46227 4.56 5.24227 4.6V9.25H6.83227ZM5.27227 18.88C5.05227 18.94 4.70227 19 4.22227 19.06C3.76227 19.12 3.30227 19.15 2.84227 19.15C2.38227 19.15 1.97227 19.11 1.61227 19.03C1.27227 18.97 0.982266 18.85 0.742266 18.67C0.502266 18.49 0.322266 18.24 0.202266 17.92C0.0822657 17.6 0.0222658 17.18 0.0222658 16.66V2.53C0.0222658 2.11 0.132266 1.79 0.352266 1.57C0.592266 1.33 0.912266 1.14 1.31227 0.999999C1.99227 0.759999 2.76227 0.589999 3.62227 0.489999C4.50227 0.369999 5.38227 0.309999 6.26227 0.309999C9.02227 0.309999 11.1323 0.899999 12.5923 2.08C14.0523 3.26 14.7823 4.86 14.7823 6.88C14.7823 7.86 14.6223 8.75 14.3023 9.55C14.0023 10.33 13.5423 11.01 12.9223 11.59C12.3223 12.15 11.5523 12.59 10.6123 12.91C9.69227 13.21 8.62227 13.36 7.40227 13.36H5.27227V18.88ZM22.328 18.97C22.128 19.03 21.808 19.09 21.368 19.15C20.948 19.21 20.508 19.24 20.048 19.24C19.608 19.24 19.208 19.21 18.848 19.15C18.508 19.09 18.218 18.97 17.978 18.79C17.738 18.61 17.548 18.37 17.408 18.07C17.288 17.75 17.228 17.34 17.228 16.84V7.84C17.228 7.38 17.308 6.99 17.468 6.67C17.648 6.33 17.898 6.03 18.218 5.77C18.538 5.51 18.928 5.28 19.388 5.08C19.868 4.86 20.378 4.67 20.918 4.51C21.458 4.35 22.018 4.23 22.598 4.15C23.178 4.05 23.758 4 24.338 4C25.298 4 26.058 4.19 26.618 4.57C27.178 4.93 27.458 5.53 27.458 6.37C27.458 6.65 27.418 6.93 27.338 7.21C27.258 7.47 27.158 7.71 27.038 7.93C26.618 7.93 26.188 7.95 25.748 7.99C25.308 8.03 24.878 8.09 24.458 8.17C24.038 8.25 23.638 8.34 23.258 8.44C22.898 8.52 22.588 8.62 22.328 8.74V18.97ZM44.8453 11.71C44.8453 12.95 44.6553 14.06 44.2753 15.04C43.8953 16 43.3553 16.81 42.6553 17.47C41.9753 18.13 41.1553 18.63 40.1953 18.97C39.2353 19.31 38.1653 19.48 36.9853 19.48C35.8053 19.48 34.7353 19.3 33.7753 18.94C32.8153 18.58 31.9853 18.07 31.2853 17.41C30.6053 16.73 30.0753 15.91 29.6953 14.95C29.3153 13.99 29.1253 12.91 29.1253 11.71C29.1253 10.53 29.3153 9.46 29.6953 8.5C30.0753 7.54 30.6053 6.73 31.2853 6.07C31.9853 5.39 32.8153 4.87 33.7753 4.51C34.7353 4.15 35.8053 3.97 36.9853 3.97C38.1653 3.97 39.2353 4.16 40.1953 4.54C41.1553 4.9 41.9753 5.42 42.6553 6.1C43.3553 6.76 43.8953 7.57 44.2753 8.53C44.6553 9.49 44.8453 10.55 44.8453 11.71ZM34.3453 11.71C34.3453 12.93 34.5753 13.87 35.0353 14.53C35.5153 15.17 36.1753 15.49 37.0153 15.49C37.8553 15.49 38.4953 15.16 38.9353 14.5C39.3953 13.84 39.6253 12.91 39.6253 11.71C39.6253 10.51 39.3953 9.59 38.9353 8.95C38.4753 8.29 37.8253 7.96 36.9853 7.96C36.1453 7.96 35.4953 8.29 35.0353 8.95C34.5753 9.59 34.3453 10.51 34.3453 11.71ZM53.1834 13.99C53.1834 14.51 53.3434 14.88 53.6634 15.1C54.0034 15.32 54.4734 15.43 55.0734 15.43C55.3734 15.43 55.6834 15.41 56.0034 15.37C56.3234 15.31 56.6034 15.24 56.8434 15.16C57.0234 15.38 57.1734 15.63 57.2934 15.91C57.4334 16.17 57.5034 16.49 57.5034 16.87C57.5034 17.63 57.2134 18.25 56.6334 18.73C56.0734 19.21 55.0734 19.45 53.6334 19.45C51.8734 19.45 50.5134 19.05 49.5534 18.25C48.6134 17.45 48.1434 16.15 48.1434 14.35V1.51C48.3634 1.45 48.6734 1.39 49.0734 1.33C49.4934 1.25 49.9334 1.21 50.3934 1.21C51.2734 1.21 51.9534 1.37 52.4334 1.69C52.9334 1.99 53.1834 2.64 53.1834 3.64V5.56H57.1134C57.2334 5.78 57.3434 6.06 57.4434 6.4C57.5634 6.72 57.6234 7.08 57.6234 7.48C57.6234 8.18 57.4634 8.69 57.1434 9.01C56.8434 9.31 56.4334 9.46 55.9134 9.46H53.1834V13.99ZM75.7594 11.71C75.7594 12.95 75.5694 14.06 75.1894 15.04C74.8094 16 74.2694 16.81 73.5694 17.47C72.8894 18.13 72.0694 18.63 71.1094 18.97C70.1494 19.31 69.0794 19.48 67.8994 19.48C66.7194 19.48 65.6494 19.3 64.6894 18.94C63.7294 18.58 62.8994 18.07 62.1994 17.41C61.5194 16.73 60.9894 15.91 60.6094 14.95C60.2294 13.99 60.0394 12.91 60.0394 11.71C60.0394 10.53 60.2294 9.46 60.6094 8.5C60.9894 7.54 61.5194 6.73 62.1994 6.07C62.8994 5.39 63.7294 4.87 64.6894 4.51C65.6494 4.15 66.7194 3.97 67.8994 3.97C69.0794 3.97 70.1494 4.16 71.1094 4.54C72.0694 4.9 72.8894 5.42 73.5694 6.1C74.2694 6.76 74.8094 7.57 75.1894 8.53C75.5694 9.49 75.7594 10.55 75.7594 11.71ZM65.2594 11.71C65.2594 12.93 65.4894 13.87 65.9494 14.53C66.4294 15.17 67.0894 15.49 67.9294 15.49C68.7694 15.49 69.4094 15.16 69.8494 14.5C70.3094 13.84 70.5394 12.91 70.5394 11.71C70.5394 10.51 70.3094 9.59 69.8494 8.95C69.3894 8.29 68.7394 7.96 67.8994 7.96C67.0594 7.96 66.4094 8.29 65.9494 8.95C65.4894 9.59 65.2594 10.51 65.2594 11.71ZM88.2375 9.76C88.2375 9.14 88.0575 8.69 87.6975 8.41C87.3575 8.11 86.8875 7.96 86.2875 7.96C85.8875 7.96 85.4875 8.01 85.0875 8.11C84.7075 8.21 84.3775 8.36 84.0975 8.56V18.97C83.8975 19.03 83.5775 19.09 83.1375 19.15C82.7175 19.21 82.2775 19.24 81.8175 19.24C81.3775 19.24 80.9775 19.21 80.6175 19.15C80.2775 19.09 79.9875 18.97 79.7475 18.79C79.5075 18.61 79.3175 18.37 79.1775 18.07C79.0575 17.75 78.9975 17.34 78.9975 16.84V7.84C78.9975 7.3 79.1075 6.86 79.3275 6.52C79.5675 6.18 79.8875 5.87 80.2875 5.59C80.9675 5.11 81.8175 4.72 82.8375 4.42C83.8775 4.12 85.0275 3.97 86.2875 3.97C88.5475 3.97 90.2875 4.47 91.5075 5.47C92.7275 6.45 93.3375 7.82 93.3375 9.58V18.97C93.1375 19.03 92.8175 19.09 92.3775 19.15C91.9575 19.21 91.5175 19.24 91.0575 19.24C90.6175 19.24 90.2175 19.21 89.8575 19.15C89.5175 19.09 89.2275 18.97 88.9875 18.79C88.7475 18.61 88.5575 18.37 88.4175 18.07C88.2975 17.75 88.2375 17.34 88.2375 16.84V9.76Z" fill="#8B8CAD"/>
</svg>
